<svg width="25" height="25" viewBox="0 0 25 25" fill="none" xmlns="http://www.w3.org/2000/svg">
<path d="M21.234 14.5666L14.8788 20.9354C14.7156 21.0969 14.5321 21.2181 14.3282 21.299C14.1243 21.3799 13.921 21.4204 13.7183 21.4206C13.5156 21.4209 13.3139 21.3807 13.1132 21.3003C12.9124 21.2198 12.7303 21.099 12.5668 20.9379L4.19586 12.6008C4.0377 12.4564 3.91818 12.2838 3.8373 12.0832C3.75642 11.8833 3.71586 11.6727 3.71563 11.4514L3.70878 5.06536C3.7083 4.61603 3.86522 4.2312 4.17955 3.91086C4.49387 3.59052 4.88103 3.43011 5.34103 3.42962L11.727 3.42277C11.943 3.42254 12.1527 3.46598 12.3562 3.5531C12.5596 3.64021 12.7354 3.75803 12.8835 3.90653L21.2315 12.2416C21.3983 12.4047 21.5199 12.5883 21.5961 12.7922C21.6723 12.9961 21.7105 13.2017 21.7107 13.4091C21.711 13.6164 21.6732 13.8198 21.5974 14.0192C21.5216 14.2186 21.4005 14.4011 21.234 14.5666ZM14.165 20.2282L20.5192 13.8594C20.6471 13.7312 20.7109 13.5805 20.7107 13.4072C20.7105 13.2338 20.6464 13.0832 20.5182 12.9554L11.9731 4.44251L5.34212 4.44961C5.16212 4.44981 5.01152 4.50764 4.89031 4.6231C4.76843 4.73856 4.70759 4.88596 4.70778 5.06529L4.71462 11.4453C4.7147 11.5226 4.72778 11.5996 4.75387 11.6762C4.77928 11.7536 4.82403 11.8242 4.88809 11.8881L13.261 20.2291C13.3892 20.357 13.5396 20.4208 13.7122 20.4207C13.8856 20.4205 14.0365 20.3563 14.165 20.2282ZM7.26091 7.98556C7.54158 7.98526 7.77948 7.88767 7.9746 7.6928C8.16972 7.49792 8.26747 7.26181 8.26784 6.98448C8.26754 6.70115 8.16995 6.46059 7.97507 6.26279C7.78019 6.065 7.54408 5.96592 7.26675 5.96555C6.98342 5.96586 6.74285 6.06445 6.54507 6.26133C6.34728 6.45821 6.24853 6.69731 6.24883 6.97864C6.24914 7.25998 6.34772 7.49787 6.5446 7.69233C6.74147 7.88678 6.98025 7.98453 7.26091 7.98556ZM14.3053 16.739L16.7566 14.1864C16.9011 14.0416 17.0112 13.8728 17.087 13.68C17.1635 13.488 17.2016 13.2759 17.2013 13.0439C17.2009 12.6179 17.0492 12.2467 16.7461 11.9304C16.4431 11.6141 16.0776 11.4561 15.6496 11.4566C15.3236 11.4569 15.0024 11.5426 14.6859 11.7136C14.3694 11.8846 14.0461 12.187 13.7159 12.6206C13.3687 12.1804 13.0411 11.877 12.7329 11.7107C12.4247 11.5444 12.107 11.4614 11.7796 11.4617C11.3516 11.4622 10.9865 11.6209 10.6842 11.9379C10.3825 12.2549 10.2319 12.626 10.2323 13.0514C10.2326 13.2834 10.2708 13.4957 10.347 13.6883C10.4232 13.8802 10.5337 14.0484 10.6786 14.1929L13.1353 16.7403C13.2975 16.9021 13.4926 16.9829 13.7206 16.9826C13.9486 16.9824 14.1435 16.9012 14.3053 16.739Z" fill="#222222"/>
</svg>
