<svg width="25" height="25" viewBox="0 0 25 25" fill="none" xmlns="http://www.w3.org/2000/svg">
<path d="M4.24591 12.1076L4.24818 14.2256C4.24864 14.7818 4.35868 15.3325 4.572 15.8462C4.78532 16.3599 5.09774 16.8266 5.49143 17.2195C5.88513 17.6124 6.35237 17.924 6.86647 18.1363C7.38058 18.3487 7.93148 18.4576 8.48771 18.4571L21.1927 18.4434M4.24023 6.8136L16.9452 6.79998C17.5015 6.79926 18.0526 6.90814 18.5668 7.12043C19.081 7.33271 19.5484 7.64422 19.9422 8.03718C20.3359 8.43013 20.6485 8.89682 20.8618 9.41059C21.0752 9.92435 21.1853 10.4751 21.1858 11.0314L21.188 13.1484" stroke="#222222" stroke-width="1.5" stroke-linecap="round" stroke-linejoin="round"/>
<path d="M18.0118 15.2698L21.1922 18.4424L18.0187 21.6228M7.41818 9.9872L4.23778 6.8136L7.41137 3.6342" stroke="#222222" stroke-width="1.5" stroke-linecap="round" stroke-linejoin="round"/>
</svg>
