<svg width="25" height="25" viewBox="0 0 25 25" fill="none" xmlns="http://www.w3.org/2000/svg">
<path d="M12.7031 1.22028L3.70741 5.22992L3.71384 11.2299C3.71979 16.7799 7.56535 21.9658 12.7267 23.2203C17.8853 21.9547 21.7198 16.7606 21.7138 11.2106L21.7074 5.21063L12.7031 1.22028ZM19.7138 11.2128C19.7187 15.7328 16.7431 19.906 12.7245 21.1503C8.70315 19.9146 5.71868 15.7478 5.71384 11.2278L5.7088 6.52777L12.7055 3.41027L19.7088 6.51277L19.7138 11.2128ZM8.12447 11.8152L6.71598 13.2267L10.7203 17.2224L18.7117 9.21384L17.3002 7.79535L10.7172 14.3924L8.12447 11.8152Z" fill="#222222"/>
</svg>
