<svg width="25" height="25" viewBox="0 0 25 25" fill="none" xmlns="http://www.w3.org/2000/svg">
<g clip-path="url(#clip0_239_743)">
<path d="M0.705078 5.34821L0.706685 6.8482L14.9567 6.83294L14.9687 18.0829L10.3517 18.0879C10.0159 16.799 8.85532 15.8395 7.46633 15.841C6.07733 15.8425 4.91886 16.8044 4.58574 18.0941L3.71874 18.095L3.71472 14.345L2.21472 14.3466L2.22035 19.5966L4.58735 19.5941C4.92323 20.8829 6.08376 21.8425 7.47275 21.841C8.86175 21.8395 10.0202 20.8775 10.3533 19.5879L16.5873 19.5812C16.9232 20.8701 18.0837 21.8296 19.4727 21.8281C20.8617 21.8266 22.0202 20.8646 22.3533 19.575L24.7203 19.5725L24.7138 13.4555L24.6664 13.3378L23.1616 8.83939L22.9983 8.32432L16.4583 8.33133L16.4551 5.33133L0.705078 5.34821ZM1.45829 8.3474L1.4599 9.8474L8.2099 9.84017L8.20829 8.34017L1.45829 8.3474ZM16.4599 9.83133L21.9206 9.82547L23.214 13.6678L23.2187 18.0741L22.3517 18.075C22.0158 16.7861 20.8553 15.8266 19.4663 15.8281C18.0773 15.8296 16.9188 16.7916 16.5857 18.0812L16.4687 18.0813L16.4599 9.83133ZM2.21151 11.3466L2.21311 12.8466L6.71311 12.8418L6.7115 11.3418L2.21151 11.3466ZM7.46793 17.341C8.30568 17.3401 8.96864 18.0016 8.96954 18.8394C8.97044 19.6771 8.3089 20.3401 7.47115 20.341C6.6334 20.3419 5.97044 19.6803 5.96954 18.8426C5.96864 18.0048 6.63018 17.3419 7.46793 17.341ZM19.4679 17.3281C20.3057 17.3272 20.9686 17.9887 20.9695 18.8265C20.9704 19.6642 20.3089 20.3272 19.4711 20.3281C18.6334 20.329 17.9704 19.6675 17.9695 18.8297C17.9686 17.992 18.6302 17.329 19.4679 17.3281Z" fill="#222222"/>
</g>
<defs>
<clipPath id="clip0_239_743">
<rect width="24" height="24" fill="white" transform="translate(0.701172 0.848206) rotate(-0.0613952)"/>
</clipPath>
</defs>
</svg>
