<svg width="25" height="25" viewBox="0 0 25 25" fill="none" xmlns="http://www.w3.org/2000/svg">
<g clip-path="url(#clip0_239_737)">
<path d="M11.2441 0.989786C11.1407 0.928134 11.0225 0.895647 10.902 0.895776C10.7816 0.895905 10.6635 0.928645 10.5601 0.990519C10.4747 1.05835 10.4171 1.15515 10.3983 1.26258C10.3794 1.37002 10.4007 1.48064 10.4579 1.57349C12.5652 5.21066 13.0145 10.1696 10.1443 12.907C9.03897 11.9796 8.16097 10.8112 7.57781 9.49143C6.51636 10.0824 5.63704 10.9528 5.03527 12.0081C4.43349 13.0635 4.13225 14.2635 4.16422 15.478C4.20885 16.5487 4.46717 17.5997 4.92399 18.5691C5.38081 19.5385 6.0269 20.4067 6.82424 21.1228C7.62159 21.8388 8.55408 22.3881 9.56687 22.7384C10.5797 23.0887 11.6523 23.2329 12.7216 23.1625C18.2262 23.1566 21.0785 19.7353 21.2608 15.4596C21.4781 10.3303 17.8302 4.02559 11.2441 0.989786Z" stroke="#222222" stroke-width="1.71429" stroke-linecap="round" stroke-linejoin="round"/>
</g>
<defs>
<clipPath id="clip0_239_737">
<rect width="24" height="24" fill="white" transform="translate(0.701172 0.0496521) rotate(-0.0613952)"/>
</clipPath>
</defs>
</svg>
